<?xml version="1.0" encoding="UTF-8"?>
<svg xmlns="http://www.w3.org/2000/svg" xmlns:xlink="http://www.w3.org/1999/xlink" width="23px" height="25px" viewBox="0 0 23 25" version="1.1">
<defs>
<linearGradient id="linear0" gradientUnits="userSpaceOnUse" x1="46.1749" y1="6.24609" x2="39.6964" y2="29.5928" gradientTransform="matrix(0.403509,0,0,0.396825,0,0)">
<stop offset="0" style="stop-color:rgb(94.901961%,50.196078%,16.470588%);stop-opacity:1;"/>
<stop offset="1" style="stop-color:rgb(90.196078%,32.941176%,16.078431%);stop-opacity:1;"/>
</linearGradient>
<linearGradient id="linear1" gradientUnits="userSpaceOnUse" x1="41.7069" y1="28.2524" x2="39.8727" y2="38.3512" gradientTransform="matrix(0.403509,0,0,0.396825,0,0)">
<stop offset="0.458251" style="stop-color:rgb(90.980392%,52.156863%,9.411765%);stop-opacity:0;"/>
<stop offset="1" style="stop-color:rgb(90.980392%,23.921569%,9.411765%);stop-opacity:1;"/>
</linearGradient>
<linearGradient id="linear2" gradientUnits="userSpaceOnUse" x1="37.6858" y1="25.944" x2="27.5954" y2="25.6747" gradientTransform="matrix(0.403509,0,0,0.396825,0,0)">
<stop offset="0.361577" style="stop-color:rgb(90.980392%,52.156863%,9.411765%);stop-opacity:0;"/>
<stop offset="1" style="stop-color:rgb(90.196078%,32.941176%,16.078431%);stop-opacity:1;"/>
</linearGradient>
<radialGradient id="radial0" gradientUnits="userSpaceOnUse" cx="0" cy="0" fx="0" fy="0" r="1" gradientTransform="matrix(-1.64931,6.589664,-18.513335,-4.481429,19.353128,-0.815575)">
<stop offset="0" style="stop-color:rgb(100%,100%,41.960784%);stop-opacity:1;"/>
<stop offset="1" style="stop-color:rgb(100%,100%,41.960784%);stop-opacity:0;"/>
</radialGradient>
<radialGradient id="radial1" gradientUnits="userSpaceOnUse" cx="0" cy="0" fx="0" fy="0" r="1" gradientTransform="matrix(0.435851,-1.360251,0.134954,0.0418213,18.551921,12.056905)">
<stop offset="0" style="stop-color:rgb(100%,100%,100%);stop-opacity:0.301961;"/>
<stop offset="1" style="stop-color:rgb(100%,100%,100%);stop-opacity:0;"/>
</radialGradient>
<radialGradient id="radial2" gradientUnits="userSpaceOnUse" cx="0" cy="0" fx="0" fy="0" r="1" gradientTransform="matrix(-1.523958,-0.631696,0.0626719,-0.146228,20.874881,7.645794)">
<stop offset="0" style="stop-color:rgb(100%,100%,100%);stop-opacity:0.301961;"/>
<stop offset="1" style="stop-color:rgb(100%,100%,100%);stop-opacity:0;"/>
</radialGradient>
<radialGradient id="radial3" gradientUnits="userSpaceOnUse" cx="0" cy="0" fx="0" fy="0" r="1" gradientTransform="matrix(-0.604533,-2.006551,0.142961,-0.0416562,18.658246,5.131429)">
<stop offset="0" style="stop-color:rgb(100%,100%,100%);stop-opacity:0.301961;"/>
<stop offset="1" style="stop-color:rgb(100%,100%,100%);stop-opacity:0;"/>
</radialGradient>
<radialGradient id="radial4" gradientUnits="userSpaceOnUse" cx="0" cy="0" fx="0" fy="0" r="1" gradientTransform="matrix(4.032854,1.277562,-0.186571,0.569598,12.400309,9.122778)">
<stop offset="0.392629" style="stop-color:rgb(97.647059%,21.568627%,4.705882%);stop-opacity:1;"/>
<stop offset="1" style="stop-color:rgb(97.647059%,56.862745%,4.705882%);stop-opacity:0;"/>
</radialGradient>
<radialGradient id="radial5" gradientUnits="userSpaceOnUse" cx="0" cy="0" fx="0" fy="0" r="1" gradientTransform="matrix(-1.270501,-4.857515,0.709382,-0.179446,16.939944,14.633095)">
<stop offset="0.392629" style="stop-color:rgb(97.647059%,21.568627%,4.705882%);stop-opacity:1;"/>
<stop offset="1" style="stop-color:rgb(97.647059%,56.862745%,4.705882%);stop-opacity:0;"/>
</radialGradient>
<radialGradient id="radial6" gradientUnits="userSpaceOnUse" cx="0" cy="0" fx="0" fy="0" r="1" gradientTransform="matrix(0.785155,-0.800227,0.813705,0.77215,15.255416,10.912738)">
<stop offset="0.584555" style="stop-color:rgb(97.647059%,21.568627%,4.705882%);stop-opacity:1;"/>
<stop offset="1" style="stop-color:rgb(97.647059%,56.862745%,4.705882%);stop-opacity:0;"/>
</radialGradient>
<linearGradient id="linear3" gradientUnits="userSpaceOnUse" x1="25.7506" y1="0.000000076735" x2="22.7105" y2="10.9554" gradientTransform="matrix(0.403509,0,0,0.396825,0,0)">
<stop offset="0" style="stop-color:rgb(94.901961%,50.196078%,16.470588%);stop-opacity:1;"/>
<stop offset="1" style="stop-color:rgb(90.196078%,32.941176%,16.078431%);stop-opacity:1;"/>
</linearGradient>
<linearGradient id="linear4" gradientUnits="userSpaceOnUse" x1="23.654" y1="10.3264" x2="22.7933" y2="15.0652" gradientTransform="matrix(0.403509,0,0,0.396825,0,0)">
<stop offset="0.458251" style="stop-color:rgb(90.980392%,52.156863%,9.411765%);stop-opacity:0;"/>
<stop offset="1" style="stop-color:rgb(90.980392%,23.921569%,9.411765%);stop-opacity:1;"/>
</linearGradient>
<linearGradient id="linear5" gradientUnits="userSpaceOnUse" x1="21.7671" y1="9.24316" x2="17.0322" y2="9.11681" gradientTransform="matrix(0.403509,0,0,0.396825,0,0)">
<stop offset="0.361577" style="stop-color:rgb(90.980392%,52.156863%,9.411765%);stop-opacity:0;"/>
<stop offset="1" style="stop-color:rgb(90.196078%,32.941176%,16.078431%);stop-opacity:1;"/>
</linearGradient>
<radialGradient id="radial7" gradientUnits="userSpaceOnUse" cx="0" cy="0" fx="0" fy="0" r="1" gradientTransform="matrix(-0.773932,3.092175,-8.687342,-2.102901,10.728975,-1.545786)">
<stop offset="0" style="stop-color:rgb(100%,100%,41.960784%);stop-opacity:1;"/>
<stop offset="1" style="stop-color:rgb(100%,100%,41.960784%);stop-opacity:0;"/>
</radialGradient>
<radialGradient id="radial8" gradientUnits="userSpaceOnUse" cx="0" cy="0" fx="0" fy="0" r="1" gradientTransform="matrix(0.204522,-0.638294,0.0633265,0.0196245,10.353026,4.494563)">
<stop offset="0" style="stop-color:rgb(100%,100%,100%);stop-opacity:0.301961;"/>
<stop offset="1" style="stop-color:rgb(100%,100%,100%);stop-opacity:0;"/>
</radialGradient>
<radialGradient id="radial9" gradientUnits="userSpaceOnUse" cx="0" cy="0" fx="0" fy="0" r="1" gradientTransform="matrix(-0.71511,-0.29642,0.0294086,-0.0686171,11.443065,2.424694)">
<stop offset="0" style="stop-color:rgb(100%,100%,100%);stop-opacity:0.301961;"/>
<stop offset="1" style="stop-color:rgb(100%,100%,100%);stop-opacity:0;"/>
</radialGradient>
<radialGradient id="radial10" gradientUnits="userSpaceOnUse" cx="0" cy="0" fx="0" fy="0" r="1" gradientTransform="matrix(-0.283675,-0.941568,0.0670838,-0.019547,10.4029,1.244829)">
<stop offset="0" style="stop-color:rgb(100%,100%,100%);stop-opacity:0.301961;"/>
<stop offset="1" style="stop-color:rgb(100%,100%,100%);stop-opacity:0;"/>
</radialGradient>
<radialGradient id="radial11" gradientUnits="userSpaceOnUse" cx="0" cy="0" fx="0" fy="0" r="1" gradientTransform="matrix(1.892394,0.599489,-0.0875477,0.267281,7.466405,3.11775)">
<stop offset="0.392629" style="stop-color:rgb(97.647059%,21.568627%,4.705882%);stop-opacity:1;"/>
<stop offset="1" style="stop-color:rgb(97.647059%,56.862745%,4.705882%);stop-opacity:0;"/>
</radialGradient>
<radialGradient id="radial12" gradientUnits="userSpaceOnUse" cx="0" cy="0" fx="0" fy="0" r="1" gradientTransform="matrix(-0.59618,-2.279378,0.332874,-0.0842043,9.596609,5.703452)">
<stop offset="0.392629" style="stop-color:rgb(97.647059%,21.568627%,4.705882%);stop-opacity:1;"/>
<stop offset="1" style="stop-color:rgb(97.647059%,56.862745%,4.705882%);stop-opacity:0;"/>
</radialGradient>
<radialGradient id="radial13" gradientUnits="userSpaceOnUse" cx="0" cy="0" fx="0" fy="0" r="1" gradientTransform="matrix(0.368431,-0.375504,0.381828,0.362329,8.806135,3.957694)">
<stop offset="0.584555" style="stop-color:rgb(97.647059%,21.568627%,4.705882%);stop-opacity:1;"/>
<stop offset="1" style="stop-color:rgb(97.647059%,56.862745%,4.705882%);stop-opacity:0;"/>
</radialGradient>
</defs>
<g id="surface1">
<path style=" stroke:none;fill-rule:nonzero;fill:url(#linear0);" d="M 16.105469 6.261719 C 16 6.589844 15.75 6.855469 15.429688 6.988281 L 12.894531 8.035156 C 12.503906 8.195312 12.503906 8.742188 12.894531 8.90625 L 15.441406 9.957031 C 15.761719 10.09375 16.011719 10.359375 16.117188 10.6875 L 17.242188 14.125 C 17.386719 14.5625 18.015625 14.5625 18.15625 14.125 L 19.277344 10.699219 C 19.386719 10.371094 19.632812 10.105469 19.953125 9.96875 L 22.511719 8.90625 C 22.90625 8.742188 22.90625 8.199219 22.511719 8.035156 L 19.964844 6.976562 C 19.644531 6.839844 19.398438 6.578125 19.292969 6.25 L 18.15625 2.804688 C 18.015625 2.371094 17.386719 2.371094 17.242188 2.804688 Z M 16.105469 6.261719 "/>
<path style=" stroke:none;fill-rule:nonzero;fill:url(#linear1);" d="M 16.105469 6.261719 C 16 6.589844 15.75 6.855469 15.429688 6.988281 L 12.894531 8.035156 C 12.503906 8.195312 12.503906 8.742188 12.894531 8.90625 L 15.441406 9.957031 C 15.761719 10.09375 16.011719 10.359375 16.117188 10.6875 L 17.242188 14.125 C 17.386719 14.5625 18.015625 14.5625 18.15625 14.125 L 19.277344 10.699219 C 19.386719 10.371094 19.632812 10.105469 19.953125 9.96875 L 22.511719 8.90625 C 22.90625 8.742188 22.90625 8.199219 22.511719 8.035156 L 19.964844 6.976562 C 19.644531 6.839844 19.398438 6.578125 19.292969 6.25 L 18.15625 2.804688 C 18.015625 2.371094 17.386719 2.371094 17.242188 2.804688 Z M 16.105469 6.261719 "/>
<path style=" stroke:none;fill-rule:nonzero;fill:url(#linear2);" d="M 16.105469 6.261719 C 16 6.589844 15.75 6.855469 15.429688 6.988281 L 12.894531 8.035156 C 12.503906 8.195312 12.503906 8.742188 12.894531 8.90625 L 15.441406 9.957031 C 15.761719 10.09375 16.011719 10.359375 16.117188 10.6875 L 17.242188 14.125 C 17.386719 14.5625 18.015625 14.5625 18.15625 14.125 L 19.277344 10.699219 C 19.386719 10.371094 19.632812 10.105469 19.953125 9.96875 L 22.511719 8.90625 C 22.90625 8.742188 22.90625 8.199219 22.511719 8.035156 L 19.964844 6.976562 C 19.644531 6.839844 19.398438 6.578125 19.292969 6.25 L 18.15625 2.804688 C 18.015625 2.371094 17.386719 2.371094 17.242188 2.804688 Z M 16.105469 6.261719 "/>
<path style=" stroke:none;fill-rule:nonzero;fill:url(#radial0);" d="M 16.105469 6.261719 C 16 6.589844 15.75 6.855469 15.429688 6.988281 L 12.894531 8.035156 C 12.503906 8.195312 12.503906 8.742188 12.894531 8.90625 L 15.441406 9.957031 C 15.761719 10.09375 16.011719 10.359375 16.117188 10.6875 L 17.242188 14.125 C 17.386719 14.5625 18.015625 14.5625 18.15625 14.125 L 19.277344 10.699219 C 19.386719 10.371094 19.632812 10.105469 19.953125 9.96875 L 22.511719 8.90625 C 22.90625 8.742188 22.90625 8.199219 22.511719 8.035156 L 19.964844 6.976562 C 19.644531 6.839844 19.398438 6.578125 19.292969 6.25 L 18.15625 2.804688 C 18.015625 2.371094 17.386719 2.371094 17.242188 2.804688 Z M 16.105469 6.261719 "/>
<path style=" stroke:none;fill-rule:nonzero;fill:url(#radial1);" d="M 16.105469 6.261719 C 16 6.589844 15.75 6.855469 15.429688 6.988281 L 12.894531 8.035156 C 12.503906 8.195312 12.503906 8.742188 12.894531 8.90625 L 15.441406 9.957031 C 15.761719 10.09375 16.011719 10.359375 16.117188 10.6875 L 17.242188 14.125 C 17.386719 14.5625 18.015625 14.5625 18.15625 14.125 L 19.277344 10.699219 C 19.386719 10.371094 19.632812 10.105469 19.953125 9.96875 L 22.511719 8.90625 C 22.90625 8.742188 22.90625 8.199219 22.511719 8.035156 L 19.964844 6.976562 C 19.644531 6.839844 19.398438 6.578125 19.292969 6.25 L 18.15625 2.804688 C 18.015625 2.371094 17.386719 2.371094 17.242188 2.804688 Z M 16.105469 6.261719 "/>
<path style=" stroke:none;fill-rule:nonzero;fill:url(#radial2);" d="M 16.105469 6.261719 C 16 6.589844 15.75 6.855469 15.429688 6.988281 L 12.894531 8.035156 C 12.503906 8.195312 12.503906 8.742188 12.894531 8.90625 L 15.441406 9.957031 C 15.761719 10.09375 16.011719 10.359375 16.117188 10.6875 L 17.242188 14.125 C 17.386719 14.5625 18.015625 14.5625 18.15625 14.125 L 19.277344 10.699219 C 19.386719 10.371094 19.632812 10.105469 19.953125 9.96875 L 22.511719 8.90625 C 22.90625 8.742188 22.90625 8.199219 22.511719 8.035156 L 19.964844 6.976562 C 19.644531 6.839844 19.398438 6.578125 19.292969 6.25 L 18.15625 2.804688 C 18.015625 2.371094 17.386719 2.371094 17.242188 2.804688 Z M 16.105469 6.261719 "/>
<path style=" stroke:none;fill-rule:nonzero;fill:url(#radial3);" d="M 16.105469 6.261719 C 16 6.589844 15.75 6.855469 15.429688 6.988281 L 12.894531 8.035156 C 12.503906 8.195312 12.503906 8.742188 12.894531 8.90625 L 15.441406 9.957031 C 15.761719 10.09375 16.011719 10.359375 16.117188 10.6875 L 17.242188 14.125 C 17.386719 14.5625 18.015625 14.5625 18.15625 14.125 L 19.277344 10.699219 C 19.386719 10.371094 19.632812 10.105469 19.953125 9.96875 L 22.511719 8.90625 C 22.90625 8.742188 22.90625 8.199219 22.511719 8.035156 L 19.964844 6.976562 C 19.644531 6.839844 19.398438 6.578125 19.292969 6.25 L 18.15625 2.804688 C 18.015625 2.371094 17.386719 2.371094 17.242188 2.804688 Z M 16.105469 6.261719 "/>
<path style=" stroke:none;fill-rule:nonzero;fill:url(#radial4);" d="M 16.105469 6.261719 C 16 6.589844 15.75 6.855469 15.429688 6.988281 L 12.894531 8.035156 C 12.503906 8.195312 12.503906 8.742188 12.894531 8.90625 L 15.441406 9.957031 C 15.761719 10.09375 16.011719 10.359375 16.117188 10.6875 L 17.242188 14.125 C 17.386719 14.5625 18.015625 14.5625 18.15625 14.125 L 19.277344 10.699219 C 19.386719 10.371094 19.632812 10.105469 19.953125 9.96875 L 22.511719 8.90625 C 22.90625 8.742188 22.90625 8.199219 22.511719 8.035156 L 19.964844 6.976562 C 19.644531 6.839844 19.398438 6.578125 19.292969 6.25 L 18.15625 2.804688 C 18.015625 2.371094 17.386719 2.371094 17.242188 2.804688 Z M 16.105469 6.261719 "/>
<path style=" stroke:none;fill-rule:nonzero;fill:url(#radial5);" d="M 16.105469 6.261719 C 16 6.589844 15.75 6.855469 15.429688 6.988281 L 12.894531 8.035156 C 12.503906 8.195312 12.503906 8.742188 12.894531 8.90625 L 15.441406 9.957031 C 15.761719 10.09375 16.011719 10.359375 16.117188 10.6875 L 17.242188 14.125 C 17.386719 14.5625 18.015625 14.5625 18.15625 14.125 L 19.277344 10.699219 C 19.386719 10.371094 19.632812 10.105469 19.953125 9.96875 L 22.511719 8.90625 C 22.90625 8.742188 22.90625 8.199219 22.511719 8.035156 L 19.964844 6.976562 C 19.644531 6.839844 19.398438 6.578125 19.292969 6.25 L 18.15625 2.804688 C 18.015625 2.371094 17.386719 2.371094 17.242188 2.804688 Z M 16.105469 6.261719 "/>
<path style=" stroke:none;fill-rule:nonzero;fill:url(#radial6);" d="M 16.105469 6.261719 C 16 6.589844 15.75 6.855469 15.429688 6.988281 L 12.894531 8.035156 C 12.503906 8.195312 12.503906 8.742188 12.894531 8.90625 L 15.441406 9.957031 C 15.761719 10.09375 16.011719 10.359375 16.117188 10.6875 L 17.242188 14.125 C 17.386719 14.5625 18.015625 14.5625 18.15625 14.125 L 19.277344 10.699219 C 19.386719 10.371094 19.632812 10.105469 19.953125 9.96875 L 22.511719 8.90625 C 22.90625 8.742188 22.90625 8.199219 22.511719 8.035156 L 19.964844 6.976562 C 19.644531 6.839844 19.398438 6.578125 19.292969 6.25 L 18.15625 2.804688 C 18.015625 2.371094 17.386719 2.371094 17.242188 2.804688 Z M 16.105469 6.261719 "/>
<path style=" stroke:none;fill-rule:nonzero;fill:url(#linear3);" d="M 9.207031 1.773438 C 9.15625 1.929688 9.039062 2.054688 8.886719 2.117188 L 7.699219 2.605469 C 7.515625 2.683594 7.515625 2.941406 7.699219 3.015625 L 8.894531 3.511719 C 9.042969 3.574219 9.160156 3.699219 9.210938 3.851562 L 9.738281 5.464844 C 9.804688 5.671875 10.101562 5.671875 10.167969 5.464844 L 10.695312 3.855469 C 10.746094 3.703125 10.859375 3.578125 11.011719 3.515625 L 12.210938 3.015625 C 12.394531 2.941406 12.394531 2.683594 12.210938 2.605469 L 11.015625 2.109375 C 10.867188 2.046875 10.75 1.921875 10.699219 1.769531 L 10.167969 0.152344 C 10.101562 -0.0507812 9.804688 -0.0507812 9.738281 0.152344 Z M 9.207031 1.773438 "/>
<path style=" stroke:none;fill-rule:nonzero;fill:url(#linear4);" d="M 9.207031 1.773438 C 9.15625 1.929688 9.039062 2.054688 8.886719 2.117188 L 7.699219 2.605469 C 7.515625 2.683594 7.515625 2.941406 7.699219 3.015625 L 8.894531 3.511719 C 9.042969 3.574219 9.160156 3.699219 9.210938 3.851562 L 9.738281 5.464844 C 9.804688 5.671875 10.101562 5.671875 10.167969 5.464844 L 10.695312 3.855469 C 10.746094 3.703125 10.859375 3.578125 11.011719 3.515625 L 12.210938 3.015625 C 12.394531 2.941406 12.394531 2.683594 12.210938 2.605469 L 11.015625 2.109375 C 10.867188 2.046875 10.75 1.921875 10.699219 1.769531 L 10.167969 0.152344 C 10.101562 -0.0507812 9.804688 -0.0507812 9.738281 0.152344 Z M 9.207031 1.773438 "/>
<path style=" stroke:none;fill-rule:nonzero;fill:url(#linear5);" d="M 9.207031 1.773438 C 9.15625 1.929688 9.039062 2.054688 8.886719 2.117188 L 7.699219 2.605469 C 7.515625 2.683594 7.515625 2.941406 7.699219 3.015625 L 8.894531 3.511719 C 9.042969 3.574219 9.160156 3.699219 9.210938 3.851562 L 9.738281 5.464844 C 9.804688 5.671875 10.101562 5.671875 10.167969 5.464844 L 10.695312 3.855469 C 10.746094 3.703125 10.859375 3.578125 11.011719 3.515625 L 12.210938 3.015625 C 12.394531 2.941406 12.394531 2.683594 12.210938 2.605469 L 11.015625 2.109375 C 10.867188 2.046875 10.75 1.921875 10.699219 1.769531 L 10.167969 0.152344 C 10.101562 -0.0507812 9.804688 -0.0507812 9.738281 0.152344 Z M 9.207031 1.773438 "/>
<path style=" stroke:none;fill-rule:nonzero;fill:url(#radial7);" d="M 9.207031 1.773438 C 9.15625 1.929688 9.039062 2.054688 8.886719 2.117188 L 7.699219 2.605469 C 7.515625 2.683594 7.515625 2.941406 7.699219 3.015625 L 8.894531 3.511719 C 9.042969 3.574219 9.160156 3.699219 9.210938 3.851562 L 9.738281 5.464844 C 9.804688 5.671875 10.101562 5.671875 10.167969 5.464844 L 10.695312 3.855469 C 10.746094 3.703125 10.859375 3.578125 11.011719 3.515625 L 12.210938 3.015625 C 12.394531 2.941406 12.394531 2.683594 12.210938 2.605469 L 11.015625 2.109375 C 10.867188 2.046875 10.75 1.921875 10.699219 1.769531 L 10.167969 0.152344 C 10.101562 -0.0507812 9.804688 -0.0507812 9.738281 0.152344 Z M 9.207031 1.773438 "/>
<path style=" stroke:none;fill-rule:nonzero;fill:url(#radial8);" d="M 9.207031 1.773438 C 9.15625 1.929688 9.039062 2.054688 8.886719 2.117188 L 7.699219 2.605469 C 7.515625 2.683594 7.515625 2.941406 7.699219 3.015625 L 8.894531 3.511719 C 9.042969 3.574219 9.160156 3.699219 9.210938 3.851562 L 9.738281 5.464844 C 9.804688 5.671875 10.101562 5.671875 10.167969 5.464844 L 10.695312 3.855469 C 10.746094 3.703125 10.859375 3.578125 11.011719 3.515625 L 12.210938 3.015625 C 12.394531 2.941406 12.394531 2.683594 12.210938 2.605469 L 11.015625 2.109375 C 10.867188 2.046875 10.75 1.921875 10.699219 1.769531 L 10.167969 0.152344 C 10.101562 -0.0507812 9.804688 -0.0507812 9.738281 0.152344 Z M 9.207031 1.773438 "/>
<path style=" stroke:none;fill-rule:nonzero;fill:url(#radial9);" d="M 9.207031 1.773438 C 9.15625 1.929688 9.039062 2.054688 8.886719 2.117188 L 7.699219 2.605469 C 7.515625 2.683594 7.515625 2.941406 7.699219 3.015625 L 8.894531 3.511719 C 9.042969 3.574219 9.160156 3.699219 9.210938 3.851562 L 9.738281 5.464844 C 9.804688 5.671875 10.101562 5.671875 10.167969 5.464844 L 10.695312 3.855469 C 10.746094 3.703125 10.859375 3.578125 11.011719 3.515625 L 12.210938 3.015625 C 12.394531 2.941406 12.394531 2.683594 12.210938 2.605469 L 11.015625 2.109375 C 10.867188 2.046875 10.75 1.921875 10.699219 1.769531 L 10.167969 0.152344 C 10.101562 -0.0507812 9.804688 -0.0507812 9.738281 0.152344 Z M 9.207031 1.773438 "/>
<path style=" stroke:none;fill-rule:nonzero;fill:url(#radial10);" d="M 9.207031 1.773438 C 9.15625 1.929688 9.039062 2.054688 8.886719 2.117188 L 7.699219 2.605469 C 7.515625 2.683594 7.515625 2.941406 7.699219 3.015625 L 8.894531 3.511719 C 9.042969 3.574219 9.160156 3.699219 9.210938 3.851562 L 9.738281 5.464844 C 9.804688 5.671875 10.101562 5.671875 10.167969 5.464844 L 10.695312 3.855469 C 10.746094 3.703125 10.859375 3.578125 11.011719 3.515625 L 12.210938 3.015625 C 12.394531 2.941406 12.394531 2.683594 12.210938 2.605469 L 11.015625 2.109375 C 10.867188 2.046875 10.75 1.921875 10.699219 1.769531 L 10.167969 0.152344 C 10.101562 -0.0507812 9.804688 -0.0507812 9.738281 0.152344 Z M 9.207031 1.773438 "/>
<path style=" stroke:none;fill-rule:nonzero;fill:url(#radial11);" d="M 9.207031 1.773438 C 9.15625 1.929688 9.039062 2.054688 8.886719 2.117188 L 7.699219 2.605469 C 7.515625 2.683594 7.515625 2.941406 7.699219 3.015625 L 8.894531 3.511719 C 9.042969 3.574219 9.160156 3.699219 9.210938 3.851562 L 9.738281 5.464844 C 9.804688 5.671875 10.101562 5.671875 10.167969 5.464844 L 10.695312 3.855469 C 10.746094 3.703125 10.859375 3.578125 11.011719 3.515625 L 12.210938 3.015625 C 12.394531 2.941406 12.394531 2.683594 12.210938 2.605469 L 11.015625 2.109375 C 10.867188 2.046875 10.75 1.921875 10.699219 1.769531 L 10.167969 0.152344 C 10.101562 -0.0507812 9.804688 -0.0507812 9.738281 0.152344 Z M 9.207031 1.773438 "/>
<path style=" stroke:none;fill-rule:nonzero;fill:url(#radial12);" d="M 9.207031 1.773438 C 9.15625 1.929688 9.039062 2.054688 8.886719 2.117188 L 7.699219 2.605469 C 7.515625 2.683594 7.515625 2.941406 7.699219 3.015625 L 8.894531 3.511719 C 9.042969 3.574219 9.160156 3.699219 9.210938 3.851562 L 9.738281 5.464844 C 9.804688 5.671875 10.101562 5.671875 10.167969 5.464844 L 10.695312 3.855469 C 10.746094 3.703125 10.859375 3.578125 11.011719 3.515625 L 12.210938 3.015625 C 12.394531 2.941406 12.394531 2.683594 12.210938 2.605469 L 11.015625 2.109375 C 10.867188 2.046875 10.75 1.921875 10.699219 1.769531 L 10.167969 0.152344 C 10.101562 -0.0507812 9.804688 -0.0507812 9.738281 0.152344 Z M 9.207031 1.773438 "/>
<path style=" stroke:none;fill-rule:nonzero;fill:url(#radial13);" d="M 9.207031 1.773438 C 9.15625 1.929688 9.039062 2.054688 8.886719 2.117188 L 7.699219 2.605469 C 7.515625 2.683594 7.515625 2.941406 7.699219 3.015625 L 8.894531 3.511719 C 9.042969 3.574219 9.160156 3.699219 9.210938 3.851562 L 9.738281 5.464844 C 9.804688 5.671875 10.101562 5.671875 10.167969 5.464844 L 10.695312 3.855469 C 10.746094 3.703125 10.859375 3.578125 11.011719 3.515625 L 12.210938 3.015625 C 12.394531 2.941406 12.394531 2.683594 12.210938 2.605469 L 11.015625 2.109375 C 10.867188 2.046875 10.75 1.921875 10.699219 1.769531 L 10.167969 0.152344 C 10.101562 -0.0507812 9.804688 -0.0507812 9.738281 0.152344 Z M 9.207031 1.773438 "/>
<path style=" stroke:none;fill-rule:nonzero;fill:rgb(0%,0%,0%);fill-opacity:1;" d="M 10.257812 24.648438 C 10.085938 24.351562 9.957031 23.765625 9.867188 22.890625 C 8.894531 24.285156 7.34375 24.984375 5.214844 24.984375 C 3.625 24.984375 2.359375 24.601562 1.414062 23.839844 C 0.472656 23.078125 0 22.019531 0 20.660156 C 0 18.039062 1.851562 16.542969 5.550781 16.167969 L 7.734375 15.972656 C 8.464844 15.882812 8.988281 15.710938 9.304688 15.457031 C 9.625 15.207031 9.78125 14.828125 9.78125 14.324219 C 9.78125 13.714844 9.582031 13.261719 9.183594 12.972656 C 8.78125 12.683594 8.105469 12.539062 7.148438 12.539062 C 6.121094 12.539062 5.382812 12.710938 4.9375 13.050781 C 4.488281 13.394531 4.226562 13.984375 4.152344 14.824219 L 0.671875 14.824219 C 0.878906 11.550781 3.046875 9.914062 7.175781 9.914062 C 11.195312 9.914062 13.203125 11.355469 13.203125 14.238281 L 13.203125 21.917969 C 13.203125 23.183594 13.398438 24.09375 13.792969 24.648438 Z M 8.746094 21.566406 C 9.4375 20.960938 9.78125 20.09375 9.78125 18.957031 L 9.78125 17.648438 C 9.445312 17.945312 8.894531 18.140625 8.128906 18.234375 L 6.222656 18.457031 C 5.289062 18.570312 4.621094 18.789062 4.21875 19.113281 C 3.816406 19.433594 3.617188 19.90625 3.617188 20.519531 C 3.617188 21.136719 3.828125 21.613281 4.25 21.957031 C 4.667969 22.300781 5.273438 22.472656 6.058594 22.46875 C 7.160156 22.472656 8.054688 22.171875 8.746094 21.566406 Z M 8.746094 21.566406 "/>
</g>
</svg>
