<?xml version="1.0" encoding="UTF-8"?>
<svg xmlns="http://www.w3.org/2000/svg" xmlns:xlink="http://www.w3.org/1999/xlink" width="50px" height="35px" viewBox="0 0 50 35" version="1.1">
<g id="surface1">
<path style=" stroke:none;fill-rule:nonzero;fill:rgb(98.039216%,49.411765%,7.843137%);fill-opacity:1;" d="M 25.070312 18.304688 C 24.960938 18.460938 24.863281 18.59375 24.773438 18.726562 C 23.320312 20.871094 21.867188 23.015625 20.414062 25.15625 C 19.0625 27.152344 17.707031 29.144531 16.355469 31.132812 C 16.308594 31.195312 16.238281 31.238281 16.160156 31.246094 C 14.25 31.230469 12.335938 31.207031 10.425781 31.183594 C 10.40625 31.183594 10.382812 31.175781 10.339844 31.171875 C 10.355469 31.132812 10.375 31.09375 10.394531 31.054688 C 11.730469 28.984375 13.0625 26.914062 14.394531 24.84375 C 15.578125 23.007812 16.761719 21.171875 17.949219 19.339844 C 19.257812 17.300781 20.570312 15.261719 21.882812 13.222656 C 22.078125 12.921875 22.277344 12.625 22.460938 12.320312 C 22.507812 12.238281 22.523438 12.140625 22.5 12.046875 C 22.148438 10.917969 21.789062 9.792969 21.425781 8.667969 C 21.273438 8.1875 21.113281 7.707031 20.96875 7.222656 C 20.921875 7.066406 20.84375 7.019531 20.6875 7.019531 C 19.484375 7.023438 18.289062 7.023438 17.09375 7.023438 C 16.863281 7.023438 16.863281 7.023438 16.863281 6.796875 C 16.863281 5.324219 16.863281 3.847656 16.859375 2.371094 C 16.859375 2.207031 16.914062 2.171875 17.066406 2.171875 C 19.480469 2.175781 21.890625 2.175781 24.304688 2.171875 C 24.417969 2.15625 24.527344 2.230469 24.558594 2.34375 C 25.828125 5.546875 27.101562 8.753906 28.375 11.953125 C 29.859375 15.6875 31.339844 19.425781 32.824219 23.160156 C 33.285156 24.320312 33.75 25.476562 34.207031 26.640625 C 34.261719 26.78125 34.316406 26.808594 34.460938 26.765625 C 35.722656 26.375 36.992188 25.992188 38.253906 25.601562 C 38.414062 25.550781 38.472656 25.585938 38.519531 25.742188 C 38.953125 27.097656 39.390625 28.453125 39.828125 29.808594 C 39.84375 29.855469 39.855469 29.902344 39.871094 29.96875 C 39.78125 30 39.695312 30.039062 39.609375 30.0625 C 36.738281 30.976562 33.863281 31.886719 30.992188 32.800781 C 30.855469 32.84375 30.816406 32.796875 30.769531 32.683594 C 29.894531 30.457031 29.015625 28.230469 28.132812 26.007812 C 27.273438 23.832031 26.410156 21.652344 25.546875 19.476562 C 25.417969 19.148438 25.289062 18.820312 25.160156 18.492188 C 25.140625 18.4375 25.113281 18.390625 25.070312 18.304688 Z M 25.070312 18.304688 "/>
</g>
</svg>
