<svg xmlns="http://www.w3.org/2000/svg" data-slug-id="container-instances" viewBox="0 0 18 18"><defs><linearGradient id="container-instances_f7543904-4a89-435e-96cd-11521c829faa" x1="9" x2="9" y1="11.95" gradientUnits="userSpaceOnUse"><stop offset="0" stop-color="#0078d4"/><stop offset=".16" stop-color="#1380da"/><stop offset=".53" stop-color="#3c91e5"/><stop offset=".82" stop-color="#559cec"/><stop offset="1" stop-color="#5ea0ef"/></linearGradient></defs><path fill="url(#container-instances_f7543904-4a89-435e-96cd-11521c829faa)" d="M17.43,8.21a3.78,3.78,0,0,0-3.29-3.64A4.77,4.77,0,0,0,9.22,0,4.91,4.91,0,0,0,4.54,3.19a4.52,4.52,0,0,0-4,4.35A4.6,4.6,0,0,0,5.32,12l.42,0h7.68l.21,0A3.84,3.84,0,0,0,17.43,8.21Z"/><path fill="#f2f2f2" d="M6.36,6.46,9,3.87a.3.3,0,0,1,.43,0L12,6.46a.13.13,0,0,1-.1.23H10.28a.15.15,0,0,0-.14.14v3.24a.11.11,0,0,1-.11.11H8.29a.11.11,0,0,1-.11-.11V6.83a.14.14,0,0,0-.13-.14H6.45A.13.13,0,0,1,6.36,6.46Z"/><path fill="#a67af4" d="M14,11.37a.13.13,0,0,0-.09-.13L9.16,9.65H9V18h.13l4.71-1.88A.13.13,0,0,0,14,16Z"/><path fill="#552f99" d="M9,9.68l-4.51.83a.14.14,0,0,0-.12.13v6.23a.15.15,0,0,0,.11.14L9,18a.13.13,0,0,0,.16-.13v-8A.14.14,0,0,0,9,9.68Z"/><polygon fill="#b77af4" points="6.92 10.92 6.92 16.73 8.49 16.98 8.49 10.65 6.92 10.92" opacity=".75"/><polygon fill="#b77af4" points="4.98 11.24 4.98 16.32 6.35 16.6 6.35 11.01 4.98 11.24" opacity=".75"/></svg>