<svg version="1.1" id="Layer_1" xmlns="http://www.w3.org/2000/svg" xmlns:xlink="http://www.w3.org/1999/xlink" x="0px" y="0px"
	 width="100%" viewBox="0 0 712 400" enable-background="new 0 0 712 400" xml:space="preserve">
<path fill="#FEA500" opacity="1.000000" stroke="none" 
	d="
M521.000000,401.000000 
	C347.333344,401.000000 174.166672,401.000000 1.000000,401.000000 
	C1.000000,267.666656 1.000000,134.333328 1.000000,1.000000 
	C238.333328,1.000000 475.666656,1.000000 713.000000,1.000000 
	C713.000000,134.333328 713.000000,267.666656 713.000000,401.000000 
	C649.166687,401.000000 585.333313,401.000000 521.000000,401.000000 
M323.001221,208.000000 
	C323.001221,208.000000 323.151703,207.834869 323.366608,208.536285 
	C327.742859,210.755203 331.498505,209.977753 335.444611,205.569824 
	C339.106415,202.122864 340.199036,197.980728 338.202484,193.371292 
	C336.172821,188.685486 331.923798,188.541656 327.616638,188.851578 
	C326.790863,188.910995 325.968353,189.016296 324.309174,189.064850 
	C323.196808,189.055740 322.084442,189.046631 321.000000,189.001831 
	C321.000000,189.001831 320.971802,189.033707 320.345703,188.577805 
	C317.555328,188.680817 314.764923,188.783829 311.596893,189.042969 
	C311.596893,189.042969 311.202942,189.151703 310.422546,189.079941 
	C309.640503,189.039307 308.858490,188.998672 308.036621,189.009705 
	C308.036621,189.009705 308.029144,188.946075 307.313934,188.529526 
	C299.548218,188.642380 291.782471,188.755249 283.439178,189.243301 
	C282.313477,194.082520 281.187775,198.921753 280.034576,203.879196 
	C279.271362,203.499573 278.791534,203.416321 278.726288,203.205032 
	C277.801849,200.212357 276.993591,197.183121 276.039642,194.200348 
	C273.909546,187.539581 273.887299,187.553055 268.986511,192.146881 
	C268.815399,192.307281 268.362701,192.167267 268.041229,192.167267 
	C266.099884,190.422241 263.929504,189.105591 261.683197,188.959991 
	C256.485382,188.623077 251.229996,188.588791 246.042480,188.997406 
	C244.241425,189.139282 241.824966,190.569992 241.050507,192.100616 
	C240.265793,193.651520 240.625183,196.319199 241.461609,198.015335 
	C242.490417,200.101593 244.531860,201.688477 246.135620,203.491196 
	C243.749420,203.836639 241.363205,204.182083 237.326385,204.766495 
	C239.555771,206.253998 241.052658,208.058777 242.219818,207.866104 
	C244.759094,207.446930 247.893524,206.660095 249.425125,204.864120 
	C253.797424,199.737167 247.166122,197.912750 244.864746,194.021774 
	C247.049103,193.344330 248.655701,192.721390 250.318680,192.353302 
	C255.627502,191.178253 257.104492,192.366501 256.794373,197.723007 
	C256.650818,200.202286 255.951508,202.651276 255.837280,205.129349 
	C255.796387,206.016357 256.735779,206.948578 257.227753,207.860138 
	C257.921539,207.109665 258.996643,206.463989 259.237122,205.588959 
	C259.940582,203.029343 260.089233,200.308380 260.883423,197.785416 
	C261.508636,195.799362 262.481598,193.737259 263.887512,192.272934 
	C264.457245,191.679535 266.585907,192.582870 268.005219,192.805145 
	C267.442505,194.966507 267.079376,197.206390 266.267639,199.269791 
	C265.203613,201.974579 263.785645,204.540131 262.519897,207.165588 
	C263.442413,207.872482 264.364960,208.579391 265.287506,209.286301 
	C265.994202,207.849075 266.368408,205.607498 267.479340,205.148285 
	C269.551910,204.291595 272.528870,203.571945 274.238434,204.477463 
	C275.876007,205.344849 275.873138,208.314362 279.377563,207.489487 
	C281.518829,206.985458 283.702820,207.722763 285.222260,205.276398 
	C285.477692,204.865112 287.961426,205.332748 288.991821,206.025024 
	C290.575897,207.089310 291.780823,209.770126 293.519409,205.452148 
	C292.025879,200.970901 294.000702,197.769562 297.706329,193.700668 
	C297.706329,198.150482 297.517853,201.252258 297.786743,204.313873 
	C297.918854,205.818222 298.898468,207.248123 299.494537,208.711716 
	C300.872650,207.360641 302.819733,206.238297 303.479065,204.598267 
	C304.234406,202.719604 303.627350,200.338684 304.032349,198.257751 
	C304.302704,196.868668 305.306763,195.622375 305.982452,194.312180 
	C306.672791,195.779099 307.675201,197.184067 307.981506,198.727219 
	C308.459015,201.133057 308.464172,203.632675 308.870453,206.650192 
	C309.254211,207.090302 309.637939,207.530426 310.313690,208.629044 
	C313.453583,210.889389 316.284149,210.292923 319.065918,207.473694 
	C319.065918,207.473694 319.319763,207.352859 320.259277,207.615265 
	C321.223022,207.688431 322.186737,207.761597 323.001221,208.000000 
M141.701508,204.290436 
	C137.455292,204.143158 136.760971,201.262497 137.396820,198.031586 
	C138.735657,191.228546 143.765060,191.645355 149.360748,192.599228 
	C148.569183,190.992218 147.724548,189.435608 146.562698,189.144333 
	C142.218262,188.055191 138.244705,188.903305 135.497787,192.817871 
	C132.657578,196.865417 132.657181,202.721680 135.688126,205.818726 
	C138.895950,209.096512 142.621460,209.001556 146.728241,207.240814 
	C148.142029,206.634659 150.157120,207.271545 151.865051,207.544067 
	C155.437805,208.114136 159.016769,209.011719 163.301041,206.115204 
	C161.441376,205.487518 160.677917,205.330872 160.012817,204.985046 
	C158.456970,204.176056 156.948318,203.276306 155.420547,202.413315 
	C156.820602,201.592163 158.231064,200.788101 159.616776,199.943405 
	C160.437943,199.442856 161.220078,198.878250 162.753021,197.851135 
	C160.670120,197.197083 159.170120,197.174225 158.638809,196.445282 
	C157.980957,195.542755 158.126450,194.054642 157.924881,192.819519 
	C161.024292,192.663055 164.174133,192.157913 167.187881,192.593796 
	C167.947144,192.703613 168.600296,195.801895 168.724472,197.567474 
	C168.964890,200.985855 168.794724,204.433090 168.794724,207.868378 
	C169.468521,207.968491 170.142319,208.068619 170.816116,208.168732 
	C171.547913,204.482025 172.587952,200.822830 172.920319,197.100449 
	C173.221390,193.728439 174.074310,191.712219 177.937164,192.076111 
	C181.629547,192.423950 183.423920,194.131531 182.842758,197.936447 
	C182.543137,199.898026 182.021942,201.852234 181.980270,203.817825 
	C181.950272,205.233475 182.547165,206.662399 182.864441,208.085403 
	C183.490936,208.050781 184.117447,208.016144 184.743942,207.981506 
	C185.313889,204.980606 185.605957,201.889847 186.538498,199.006210 
	C187.336243,196.539368 185.745926,191.769058 190.511505,192.430481 
	C194.856491,193.033554 192.814194,197.150665 192.966461,199.862900 
	C193.116577,202.536896 192.999222,205.225922 192.999222,207.908356 
	C193.521820,207.936340 194.044418,207.964325 194.567017,207.992310 
	C195.584335,206.864548 196.601639,205.736801 197.650681,204.573853 
	C198.846268,205.907593 199.758774,206.925552 201.388428,208.743530 
	C202.442810,204.879715 203.261093,201.881088 204.408157,197.677628 
	C207.294113,201.800262 209.537201,205.004562 212.222504,208.840576 
	C213.649963,206.047821 214.565277,204.257050 216.296829,200.869339 
	C217.165222,202.622742 217.472870,203.597931 218.056427,204.362549 
	C220.983612,208.197891 225.492035,209.750763 229.317078,207.097549 
	C231.221405,205.776627 231.547485,202.180450 232.587509,199.613495 
	C230.817200,199.105316 229.046906,198.597137 227.563660,198.171356 
	C227.332062,201.018509 227.185989,202.814224 227.039902,204.609940 
	C225.258545,204.095184 222.170639,203.907104 221.944717,203.003464 
	C221.307465,200.454651 221.062393,197.210510 222.184982,195.020798 
	C222.985260,193.459793 226.189758,192.913635 228.432388,192.391571 
	C229.774429,192.079178 231.330399,192.685791 232.790207,192.879318 
	C232.969055,192.417099 233.147919,191.954895 233.326767,191.492676 
	C232.244034,190.685318 231.061127,189.084900 230.095795,189.206833 
	C225.741516,189.756805 221.448853,190.794647 216.560974,191.771179 
	C216.280884,191.383118 215.384781,190.141602 213.783310,187.922821 
	C212.647766,192.024796 211.787949,195.130783 210.534409,199.658997 
	C208.342438,196.152771 207.079910,193.891312 205.566528,191.812439 
	C204.785339,190.739365 203.558472,189.990723 202.532974,189.095490 
	C201.966766,190.339783 201.205170,191.534683 200.875458,192.838776 
	C200.209732,195.471863 199.778625,198.164276 199.250748,200.832230 
	C198.671143,200.745972 198.091553,200.659729 197.511948,200.573471 
	C197.511948,196.804703 197.511948,193.035919 197.511948,188.910217 
	C195.756439,189.250122 194.656921,189.663895 193.565567,189.643417 
	C181.788086,189.422745 170.006744,189.262451 158.238098,188.793579 
	C154.112793,188.629211 152.545303,190.107452 152.588516,194.160812 
	C152.609833,196.158371 151.759491,198.165253 151.372620,199.864655 
	C148.372726,199.154099 145.998123,198.591644 142.785172,197.830627 
	C143.409988,200.225601 143.715912,201.398270 143.196869,203.152588 
	C142.977844,203.408020 142.758835,203.663437 141.701508,204.290436 
M298.897736,179.891907 
	C301.183502,179.848267 303.480133,179.928314 305.752319,179.729492 
	C308.555969,179.484192 310.424591,178.224365 309.931519,174.041183 
	C309.894318,162.353851 309.857147,150.666504 309.901489,138.047760 
	C309.937958,115.948746 309.933502,93.849510 310.054413,71.750954 
	C310.072784,68.391533 308.970154,66.879120 305.455475,67.000572 
	C299.314758,67.212784 293.165039,67.164627 286.084473,67.103981 
	C253.030228,67.083397 219.975983,67.049561 186.921783,67.075371 
	C184.949951,67.076912 182.978500,67.556313 180.421326,67.463371 
	C179.289520,67.357910 178.157715,67.252441 176.087311,67.084435 
	C166.105789,67.065018 156.122009,67.161865 146.143906,66.967354 
	C142.302933,66.892479 140.842514,68.185806 140.865997,72.136063 
	C141.014404,97.089806 140.982666,122.044609 140.971161,147.935928 
	C140.966660,156.756485 141.098236,165.580185 140.895752,174.396194 
	C140.805008,178.347305 141.932022,180.044144 146.216690,180.032547 
	C195.144348,179.899963 244.072418,179.916550 293.662811,179.947906 
	C294.105408,179.936356 294.548035,179.924820 295.744293,179.960144 
	C296.497162,179.922821 297.250061,179.885498 298.897736,179.891907 
z"/>
<path fill="#F2C434" opacity="1.000000" stroke="none" 
	d="
M141.010406,146.999069 
	C140.982666,122.044609 141.014404,97.089806 140.865997,72.136063 
	C140.842514,68.185806 142.302933,66.892479 146.143906,66.967354 
	C156.122009,67.161865 166.105789,67.065018 176.693390,67.415916 
	C178.533997,68.163918 179.768524,68.580437 181.295074,69.181885 
	C183.920547,72.124229 185.866043,74.945480 189.919235,76.077835 
	C192.009628,76.661842 195.988846,78.751617 193.626038,82.849915 
	C190.229034,82.624908 187.040344,81.945663 184.145279,82.588615 
	C178.066223,83.938683 176.423950,88.947090 176.297577,94.402290 
	C176.180481,99.456772 178.391006,103.108475 183.281387,105.415215 
	C190.189026,108.673500 190.402664,111.284752 184.746567,116.698051 
	C183.709091,117.690994 182.272705,118.267151 180.765823,118.841537 
	C176.714661,119.254387 169.683121,126.949883 170.250000,130.293930 
	C170.760071,133.303009 172.142334,135.810654 176.324829,133.911072 
	C177.434479,133.187042 178.229752,132.528275 179.381470,131.874939 
	C180.212540,131.837051 180.687164,131.793732 181.502563,131.747604 
	C182.520889,131.712997 183.198395,131.681213 183.914963,132.020096 
	C184.499207,135.155472 185.201965,137.913773 180.643661,137.622040 
	C180.096741,137.587021 178.930817,139.415100 178.910019,140.397812 
	C178.841187,143.650024 180.129013,147.260605 179.103897,150.082596 
	C177.704788,153.934204 176.416931,157.006836 181.836823,160.247147 
	C176.583893,160.979172 173.239243,160.618774 169.983261,158.049118 
	C162.080490,151.812225 154.353302,144.928940 143.005783,146.984924 
	C142.360962,147.101761 141.676453,146.999405 141.010406,146.999069 
z"/>
<path fill="#F4CA46" opacity="1.000000" stroke="none" 
	d="
M287.019073,67.225578 
	C293.165039,67.164627 299.314758,67.212784 305.455475,67.000572 
	C308.970154,66.879120 310.072784,68.391533 310.054413,71.750954 
	C309.933502,93.849510 309.937958,115.948746 309.458191,138.507385 
	C305.735352,138.719803 302.313446,137.766724 299.209930,138.392578 
	C294.671814,139.307755 291.484497,137.661133 288.432831,134.900665 
	C286.959869,133.568268 285.833313,131.472961 284.135498,130.846786 
	C280.404663,129.470810 278.197052,123.266479 272.529175,126.849243 
	C267.188751,122.664536 262.232483,118.491562 256.956665,114.771843 
	C254.958588,113.363083 252.223587,112.999535 249.589569,112.170731 
	C249.354675,112.181908 248.891510,112.099968 248.873917,111.736115 
	C246.858215,108.984459 244.860123,106.596664 243.232574,104.100281 
	C249.282639,100.029961 249.735977,109.128273 254.190277,108.228287 
	C258.702026,102.640457 258.740082,102.435875 256.073547,97.435165 
	C262.469177,97.005051 261.442535,92.087196 262.098145,87.937996 
	C262.412292,85.950165 263.919678,82.453857 264.627747,82.517578 
	C267.778900,82.801155 271.857056,80.658676 273.958771,85.010574 
	C274.556091,86.247368 275.328827,87.399452 276.021088,88.590385 
	C276.549194,88.555641 277.077301,88.520897 277.605408,88.486145 
	C278.480103,83.322502 279.354828,78.158859 280.256866,72.833977 
	C282.230835,71.196808 284.624969,69.211197 287.019073,67.225578 
z"/>
<path fill="#F1C02F" opacity="1.000000" stroke="none" 
	d="
M140.990784,147.467499 
	C141.676453,146.999405 142.360962,147.101761 143.005783,146.984924 
	C154.353302,144.928940 162.080490,151.812225 169.983261,158.049118 
	C173.239243,160.618774 176.583893,160.979172 181.836823,160.247147 
	C176.416931,157.006836 177.704788,153.934204 179.103897,150.082596 
	C180.129013,147.260605 178.841187,143.650024 178.910019,140.397812 
	C178.930817,139.415100 180.096741,137.587021 180.643661,137.622040 
	C185.201965,137.913773 184.499207,135.155472 184.099640,131.764618 
	C185.730835,130.357132 187.216400,129.575775 188.699768,129.178253 
	C187.468384,135.844772 185.671600,142.082184 185.165649,148.422592 
	C184.632599,155.102463 188.332291,157.560287 195.325241,156.002625 
	C196.468231,156.007950 197.230148,156.010086 197.964508,156.381165 
	C196.262482,158.480927 194.587997,160.211746 192.636597,162.228806 
	C194.252640,162.740143 195.862534,163.018250 197.248520,163.731461 
	C201.386658,165.860901 205.148407,167.443680 206.382935,160.697510 
	C206.456543,160.295364 208.361130,160.228287 209.413696,160.005295 
	C210.452850,166.624619 214.813431,166.597549 219.860703,165.252411 
	C220.141464,165.177597 220.518387,165.348969 220.818695,165.479233 
	C225.738129,167.613235 230.631882,169.808395 235.581512,171.869492 
	C236.908661,172.422134 238.391998,172.797516 239.822052,172.865280 
	C243.083725,173.019867 246.362503,173.058441 249.623596,172.909332 
	C252.738495,172.766891 256.082947,172.963501 258.897339,171.888016 
	C265.097443,169.518753 270.397095,169.644012 275.347260,174.602509 
	C276.518707,175.775955 279.113831,176.668518 280.580505,176.201889 
	C285.851532,174.524780 289.144623,175.247147 293.000366,179.893326 
	C244.072418,179.916550 195.144348,179.899963 146.216690,180.032547 
	C141.932022,180.044144 140.805008,178.347305 140.895752,174.396194 
	C141.098236,165.580185 140.966660,156.756485 140.990784,147.467499 
M241.179596,176.683731 
	C241.045090,176.871933 240.910568,177.060135 240.776062,177.248337 
	C240.973770,177.128952 241.171494,177.009567 241.179596,176.683731 
z"/>
<path fill="#F3C73F" opacity="1.000000" stroke="none" 
	d="
M286.551758,67.164780 
	C284.624969,69.211197 282.230835,71.196808 280.256866,72.833977 
	C279.354828,78.158859 278.480103,83.322502 277.605408,88.486145 
	C277.077301,88.520897 276.549194,88.555641 276.021088,88.590385 
	C275.328827,87.399452 274.556091,86.247368 273.958771,85.010574 
	C271.857056,80.658676 267.778900,82.801155 264.627747,82.517578 
	C263.919678,82.453857 262.412292,85.950165 262.098145,87.937996 
	C261.442535,92.087196 262.469177,97.005051 256.073547,97.435165 
	C258.740082,102.435875 258.702026,102.640457 254.190277,108.228287 
	C249.735977,109.128273 249.282639,100.029961 243.235306,104.075272 
	C242.867462,104.158844 242.883301,104.115204 242.912399,103.710693 
	C242.427582,101.723351 241.913666,100.140518 241.399750,98.557693 
	C240.173416,99.123482 238.947098,99.689278 237.368683,100.224045 
	C233.735291,98.480377 230.453979,96.767731 226.863739,94.889816 
	C222.972549,91.534988 219.332367,90.508331 215.158447,93.884872 
	C212.755356,95.828888 210.018356,97.360138 207.380402,98.716843 
	C207.505188,95.097946 207.673233,91.838943 207.859711,88.580994 
	C208.019409,85.791115 206.906769,84.145607 203.931778,84.121422 
	C200.633163,84.094604 197.334625,84.058846 194.017288,83.768982 
	C193.988144,83.338867 193.977753,83.166733 193.967346,82.994598 
	C195.988846,78.751617 192.009628,76.661842 189.919235,76.077835 
	C185.866043,74.945480 183.920547,72.124229 181.297211,68.886009 
	C181.007172,68.207916 181.007019,68.010635 181.006866,67.813354 
	C182.978500,67.556313 184.949951,67.076912 186.921783,67.075371 
	C219.975983,67.049561 253.030228,67.083397 286.551758,67.164780 
M250.219864,99.818192 
	C249.948395,100.090828 249.676941,100.363472 249.405472,100.636108 
	C249.614456,100.820076 249.823425,101.004044 250.032410,101.188011 
	C250.196976,100.828094 250.361542,100.468185 250.219864,99.818192 
z"/>
<path fill="#F2C335" opacity="1.000000" stroke="none" 
	d="
M293.331604,179.920624 
	C289.144623,175.247147 285.851532,174.524780 280.580505,176.201889 
	C279.113831,176.668518 276.518707,175.775955 275.347260,174.602509 
	C270.397095,169.644012 265.097443,169.518753 258.897339,171.888016 
	C256.082947,172.963501 252.738495,172.766891 249.623596,172.909332 
	C246.362503,173.058441 243.083725,173.019867 239.822052,172.865280 
	C238.391998,172.797516 236.908661,172.422134 235.581512,171.869492 
	C230.631882,169.808395 225.738129,167.613235 220.818695,165.479233 
	C220.518387,165.348969 220.141464,165.177597 219.860703,165.252411 
	C214.813431,166.597549 210.452850,166.624619 209.413696,160.005295 
	C208.361130,160.228287 206.456543,160.295364 206.382935,160.697510 
	C205.148407,167.443680 201.386658,165.860901 197.248520,163.731461 
	C195.862534,163.018250 194.252640,162.740143 192.636597,162.228806 
	C194.587997,160.211746 196.262482,158.480927 198.363892,156.369324 
	C207.237915,154.680496 208.380661,153.046997 207.316162,144.893448 
	C207.024948,142.662949 207.404770,140.262314 207.893936,138.031235 
	C208.690475,134.398254 210.479706,133.114441 213.734940,136.078949 
	C218.871613,140.756882 223.973190,145.494080 229.386642,149.835861 
	C231.220276,151.306473 234.661591,152.956619 236.092178,152.178543 
	C237.781738,151.259628 238.520004,147.868042 238.912399,145.426529 
	C239.989609,138.723862 240.136261,131.830124 241.702408,125.262711 
	C242.680939,121.159386 242.025253,119.296722 238.382111,117.354958 
	C234.441956,115.254898 229.472458,113.735611 229.301331,108.163498 
	C233.276993,110.539070 236.886688,112.869682 240.659882,114.895782 
	C247.189026,118.401749 248.549103,123.925438 244.446060,129.942520 
	C243.506470,131.320450 243.246796,133.290680 243.064636,135.029205 
	C242.701950,138.490997 242.590866,141.980194 242.413193,145.459976 
	C242.286331,147.944794 241.247513,151.068130 242.358063,152.768494 
	C243.974045,155.242676 247.158005,156.692734 249.673401,158.579468 
	C250.457108,157.389557 251.240829,156.199646 252.375793,154.982910 
	C253.637146,154.847275 254.547287,154.738449 255.854401,154.753769 
	C260.400055,155.942764 264.591309,156.866150 268.688934,158.100418 
	C278.799774,161.145935 290.027191,160.663605 298.746399,168.212143 
	C301.977417,171.009323 306.124359,172.748505 309.853577,174.970184 
	C310.424591,178.224365 308.555969,179.484192 305.752319,179.729492 
	C303.480133,179.928314 301.183502,179.848267 298.374939,179.583267 
	C297.329407,178.741501 296.806610,178.208374 296.283844,177.675247 
	C295.852783,178.421249 295.421692,179.167267 294.990631,179.913269 
	C294.548035,179.924820 294.105408,179.936356 293.331604,179.920624 
z"/>
<path fill="#F3C73F" opacity="1.000000" stroke="none" 
	d="
M309.892548,174.505676 
	C306.124359,172.748505 301.977417,171.009323 298.746399,168.212143 
	C290.027191,160.663605 278.799774,161.145935 268.688934,158.100418 
	C264.591309,156.866150 260.400055,155.942764 255.922668,154.390594 
	C255.651718,145.936050 255.709488,137.968826 256.159210,130.015869 
	C258.803009,130.865448 261.028564,131.782791 263.313293,132.515579 
	C266.247162,133.456589 268.077179,132.617706 268.292053,129.164261 
	C268.735168,129.093994 268.912354,129.065338 269.368988,129.109039 
	C270.694336,128.468079 271.740234,127.754753 272.786133,127.041428 
	C278.197052,123.266479 280.404663,129.470810 284.135498,130.846786 
	C285.833313,131.472961 286.959869,133.568268 288.432831,134.900665 
	C291.484497,137.661133 294.671814,139.307755 299.209930,138.392578 
	C302.313446,137.766724 305.735352,138.719803 309.417450,138.973083 
	C309.857147,150.666504 309.894318,162.353851 309.892548,174.505676 
z"/>
<path fill="#FEE6A7" opacity="1.000000" stroke="none" 
	d="
M144.021820,202.570923 
	C143.715912,201.398270 143.409988,200.225601 142.785172,197.830627 
	C145.998123,198.591644 148.372726,199.154099 151.372620,199.864655 
	C151.759491,198.165253 152.609833,196.158371 152.588516,194.160812 
	C152.545303,190.107452 154.112793,188.629211 158.238098,188.793579 
	C170.006744,189.262451 181.788086,189.422745 193.565567,189.643417 
	C194.656921,189.663895 195.756439,189.250122 197.511948,188.910217 
	C197.511948,193.035919 197.511948,196.804703 197.511948,200.573471 
	C198.091553,200.659729 198.671143,200.745972 199.250748,200.832230 
	C199.778625,198.164276 200.209732,195.471863 200.875458,192.838776 
	C201.205170,191.534683 201.966766,190.339783 202.532974,189.095490 
	C203.558472,189.990723 204.785339,190.739365 205.566528,191.812439 
	C207.079910,193.891312 208.342438,196.152771 210.534409,199.658997 
	C211.787949,195.130783 212.647766,192.024796 213.783310,187.922821 
	C215.384781,190.141602 216.280884,191.383118 216.560974,191.771179 
	C221.448853,190.794647 225.741516,189.756805 230.095795,189.206833 
	C231.061127,189.084900 232.244034,190.685318 233.326767,191.492676 
	C233.147919,191.954895 232.969055,192.417099 232.790207,192.879318 
	C231.330399,192.685791 229.774429,192.079178 228.432388,192.391571 
	C226.189758,192.913635 222.985260,193.459793 222.184982,195.020798 
	C221.062393,197.210510 221.307465,200.454651 221.944717,203.003464 
	C222.170639,203.907104 225.258545,204.095184 227.039917,204.609924 
	C227.185989,202.814224 227.332062,201.018509 227.563660,198.171356 
	C229.046906,198.597137 230.817200,199.105316 232.587509,199.613495 
	C231.547485,202.180450 231.221405,205.776627 229.317078,207.097549 
	C225.492035,209.750763 220.983612,208.197891 218.056427,204.362549 
	C217.472870,203.597931 217.165222,202.622742 216.296829,200.869339 
	C214.565277,204.257050 213.649963,206.047821 212.222504,208.840576 
	C209.537201,205.004562 207.294113,201.800262 204.408157,197.677628 
	C203.261093,201.881088 202.442810,204.879715 201.388428,208.743530 
	C199.758774,206.925552 198.846268,205.907593 197.650681,204.573853 
	C196.601639,205.736801 195.584335,206.864548 194.567017,207.992310 
	C194.044418,207.964325 193.521820,207.936340 192.999222,207.908356 
	C192.999222,205.225922 193.116577,202.536896 192.966461,199.862900 
	C192.814194,197.150665 194.856491,193.033554 190.511505,192.430481 
	C185.745926,191.769058 187.336243,196.539368 186.538498,199.006210 
	C185.605957,201.889847 185.313889,204.980606 184.743942,207.981506 
	C184.117447,208.016144 183.490936,208.050781 182.864441,208.085403 
	C182.547165,206.662399 181.950272,205.233475 181.980270,203.817825 
	C182.021942,201.852234 182.543137,199.898026 182.842758,197.936447 
	C183.423920,194.131531 181.629547,192.423950 177.937164,192.076111 
	C174.074310,191.712219 173.221390,193.728439 172.920319,197.100449 
	C172.587952,200.822830 171.547913,204.482025 170.816116,208.168732 
	C170.142319,208.068619 169.468521,207.968491 168.794724,207.868378 
	C168.794724,204.433090 168.964890,200.985855 168.724472,197.567474 
	C168.600296,195.801895 167.947144,192.703613 167.187881,192.593796 
	C164.174133,192.157913 161.024292,192.663055 157.924881,192.819519 
	C158.126450,194.054642 157.980957,195.542755 158.638809,196.445282 
	C159.170120,197.174225 160.670120,197.197083 162.753021,197.851135 
	C161.220078,198.878250 160.437943,199.442856 159.616776,199.943405 
	C158.231064,200.788101 156.820602,201.592163 155.420547,202.413315 
	C156.948318,203.276306 158.456970,204.176056 160.012817,204.985046 
	C160.677917,205.330872 161.441376,205.487518 163.301041,206.115204 
	C159.016769,209.011719 155.437805,208.114136 151.865051,207.544067 
	C150.157120,207.271545 148.142029,206.634659 146.728241,207.240814 
	C142.621460,209.001556 138.895950,209.096512 135.688126,205.818726 
	C132.657181,202.721680 132.657578,196.865417 135.497787,192.817871 
	C138.244705,188.903305 142.218262,188.055191 146.562698,189.144333 
	C147.724548,189.435608 148.569183,190.992218 149.360748,192.599228 
	C143.765060,191.645355 138.735657,191.228546 137.396820,198.031586 
	C136.760971,201.262497 137.455292,204.143158 142.397369,204.293030 
	C143.402771,203.720734 143.712296,203.145828 144.021820,202.570923 
z"/>
<path fill="#FEE6A7" opacity="1.000000" stroke="none" 
	d="
M293.212250,205.989655 
	C291.780823,209.770126 290.575897,207.089310 288.991821,206.025024 
	C287.961426,205.332748 285.477692,204.865112 285.222260,205.276398 
	C283.702820,207.722763 281.518829,206.985458 279.377563,207.489487 
	C275.873138,208.314362 275.876007,205.344849 274.238434,204.477463 
	C272.528870,203.571945 269.551910,204.291595 267.479340,205.148285 
	C266.368408,205.607498 265.994202,207.849075 265.287506,209.286301 
	C264.364960,208.579391 263.442413,207.872482 262.519897,207.165588 
	C263.785645,204.540131 265.203613,201.974579 266.267639,199.269791 
	C267.079376,197.206390 267.442505,194.966507 268.005219,192.805145 
	C266.585907,192.582870 264.457245,191.679535 263.887512,192.272934 
	C262.481598,193.737259 261.508636,195.799362 260.883423,197.785416 
	C260.089233,200.308380 259.940582,203.029343 259.237122,205.588959 
	C258.996643,206.463989 257.921539,207.109665 257.227753,207.860138 
	C256.735779,206.948578 255.796387,206.016357 255.837280,205.129349 
	C255.951508,202.651276 256.650818,200.202286 256.794373,197.723007 
	C257.104492,192.366501 255.627502,191.178253 250.318680,192.353302 
	C248.655701,192.721390 247.049103,193.344330 244.864746,194.021774 
	C247.166122,197.912750 253.797424,199.737167 249.425125,204.864120 
	C247.893524,206.660095 244.759094,207.446930 242.219818,207.866104 
	C241.052658,208.058777 239.555771,206.253998 237.326385,204.766495 
	C241.363205,204.182083 243.749420,203.836639 246.135620,203.491196 
	C244.531860,201.688477 242.490417,200.101593 241.461609,198.015335 
	C240.625183,196.319199 240.265793,193.651520 241.050507,192.100616 
	C241.824966,190.569992 244.241425,189.139282 246.042480,188.997406 
	C251.229996,188.588791 256.485382,188.623077 261.683197,188.959991 
	C263.929504,189.105591 266.099884,190.422241 268.041229,192.167267 
	C268.362701,192.167267 268.815399,192.307281 268.986511,192.146881 
	C273.887299,187.553055 273.909546,187.539581 276.039642,194.200348 
	C276.993591,197.183121 277.801849,200.212357 278.726288,203.205032 
	C278.791534,203.416321 279.271362,203.499573 280.034576,203.879196 
	C281.187775,198.921753 282.313477,194.082520 284.138580,189.135284 
	C286.305756,189.104675 287.802673,189.024338 289.235748,189.289337 
	C293.384460,190.056488 295.422363,193.809753 292.660614,196.833511 
	C289.228638,200.591095 290.857361,203.082001 293.212250,205.989655 
M285.257721,193.964828 
	C285.667023,195.237915 286.076324,196.511017 286.485626,197.784088 
	C287.832245,197.010803 289.394775,196.442307 290.418762,195.362946 
	C290.825226,194.934448 290.032867,192.473175 289.794006,192.474350 
	C288.321350,192.481705 286.850861,192.927963 285.257721,193.964828 
z"/>
<path fill="#FEE6A7" opacity="1.000000" stroke="none" 
	d="
M325.144348,189.100433 
	C325.968353,189.016296 326.790863,188.910995 327.616638,188.851578 
	C331.923798,188.541656 336.172821,188.685486 338.202484,193.371292 
	C340.199036,197.980728 339.106415,202.122864 334.891418,205.957428 
	C330.609375,206.841644 326.880554,207.338257 323.151703,207.834869 
	C323.151703,207.834869 323.001221,208.000000 322.992798,207.485474 
	C322.993042,204.300598 323.001740,201.630234 323.066833,198.780212 
	C323.123230,198.600540 323.128174,198.223938 323.315155,197.883850 
	C324.049530,194.729324 324.596954,191.914871 325.144348,189.100433 
M335.133972,199.191681 
	C335.184692,198.535446 335.290894,197.877991 335.276733,197.223160 
	C335.205444,193.933563 333.723541,191.867630 330.237793,191.808197 
	C326.637482,191.746826 327.317993,194.614105 326.988831,196.765640 
	C326.789520,198.068359 326.392456,199.376068 326.433075,200.670578 
	C326.475525,202.024811 326.592926,204.256042 327.286499,204.523239 
	C328.634827,205.042679 330.727783,204.957458 331.922485,204.196640 
	C333.282928,203.330276 333.999237,201.452393 335.133972,199.191681 
z"/>
<path fill="#E8B12B" opacity="1.000000" stroke="none" 
	d="
M293.365845,205.720901 
	C290.857361,203.082001 289.228638,200.591095 292.660614,196.833511 
	C295.422363,193.809753 293.384460,190.056488 289.235748,189.289337 
	C287.802673,189.024338 286.305756,189.104675 284.427368,188.947693 
	C291.782471,188.755249 299.548218,188.642380 307.214172,188.793152 
	C303.515900,189.056778 299.917358,189.056778 296.318817,189.056778 
	C296.112610,189.596436 295.906403,190.136093 295.700165,190.675751 
	C300.740753,191.435776 300.118561,194.633011 299.690369,197.857498 
	C299.303101,200.773880 299.130493,203.718750 298.863251,206.651062 
	C299.440521,206.741150 300.017761,206.831238 300.595032,206.921341 
	C301.001770,205.663300 301.523621,204.429535 301.794769,203.142929 
	C302.830231,198.230026 301.447510,192.195450 308.061554,189.906265 
	C308.163666,189.870911 308.075714,189.286301 308.076447,188.958038 
	C308.858490,188.998672 309.640503,189.039307 310.723633,189.517700 
	C310.239624,195.334488 309.454559,200.713516 308.669495,206.092545 
	C308.464172,203.632675 308.459015,201.133057 307.981506,198.727219 
	C307.675201,197.184067 306.672791,195.779099 305.982452,194.312180 
	C305.306763,195.622375 304.302704,196.868668 304.032349,198.257751 
	C303.627350,200.338684 304.234406,202.719604 303.479065,204.598267 
	C302.819733,206.238297 300.872650,207.360641 299.494537,208.711716 
	C298.898468,207.248123 297.918854,205.818222 297.786743,204.313873 
	C297.517853,201.252258 297.706329,198.150482 297.706329,193.700668 
	C294.000702,197.769562 292.025879,200.970901 293.365845,205.720901 
z"/>
<path fill="#FEE6A7" opacity="1.000000" stroke="none" 
	d="
M308.769958,206.371368 
	C309.454559,200.713516 310.239624,195.334488 311.113831,189.553589 
	C311.202942,189.151703 311.596893,189.042969 312.233826,189.028549 
	C315.571136,189.020660 318.271454,189.027191 320.971802,189.033722 
	C320.971802,189.033707 321.000000,189.001831 320.991394,189.379868 
	C319.643677,190.465973 318.304565,191.174042 316.632416,191.847900 
	C315.855652,191.849747 315.411896,191.885803 314.653198,191.953186 
	C314.031921,192.695160 313.725586,193.405807 313.363129,194.399109 
	C313.320312,195.064194 313.333618,195.446625 313.501465,196.160370 
	C315.106537,196.626236 316.557007,196.760818 318.252502,197.141846 
	C317.664642,198.181381 316.902130,199.550247 315.985992,199.662216 
	C312.940369,200.034470 311.964325,201.451065 312.761108,204.561035 
	C315.022156,204.873718 317.277496,205.185608 319.478027,205.728516 
	C319.388702,206.423981 319.354248,206.888428 319.319763,207.352859 
	C319.319763,207.352859 319.065918,207.473694 318.541473,207.571808 
	C315.351898,207.770126 312.686798,207.870331 310.021667,207.970551 
	C309.637939,207.530426 309.254211,207.090302 308.769958,206.371368 
z"/>
<path fill="#E8B12B" opacity="1.000000" stroke="none" 
	d="
M316.965454,191.882095 
	C318.304565,191.174042 319.643677,190.465973 320.977417,189.397720 
	C322.084442,189.046631 323.196808,189.055740 324.726776,189.082642 
	C324.596954,191.914871 324.049530,194.729324 323.239502,197.473969 
	C322.846222,195.857422 322.715607,194.310669 322.616486,193.137085 
	C320.315521,192.626083 318.640503,192.254089 316.965454,191.882095 
z"/>
<path fill="#E8B12B" opacity="1.000000" stroke="none" 
	d="
M323.259155,208.185577 
	C326.880554,207.338257 330.609375,206.841644 334.702148,206.229706 
	C331.498505,209.977753 327.742859,210.755203 323.259155,208.185577 
z"/>
<path fill="#E8B12B" opacity="1.000000" stroke="none" 
	d="
M310.167664,208.299805 
	C312.686798,207.870331 315.351898,207.770126 318.457764,207.684723 
	C316.284149,210.292923 313.453583,210.889389 310.167664,208.299805 
z"/>
<path fill="#E8B12B" opacity="1.000000" stroke="none" 
	d="
M319.789551,207.484070 
	C319.354248,206.888428 319.388702,206.423981 319.838684,205.534592 
	C321.172974,203.059723 322.091736,201.009811 323.010498,198.959900 
	C323.001740,201.630234 322.993042,204.300598 323.067413,207.402863 
	C322.186737,207.761597 321.223022,207.688431 319.789551,207.484070 
z"/>
<path fill="#E8B12B" opacity="1.000000" stroke="none" 
	d="
M320.658752,188.805756 
	C318.271454,189.027191 315.571136,189.020660 312.422668,188.950485 
	C314.764923,188.783829 317.555328,188.680817 320.658752,188.805756 
z"/>
<path fill="#F2C335" opacity="1.000000" stroke="none" 
	d="
M180.714096,67.638367 
	C181.007019,68.010635 181.007172,68.207916 181.005188,68.701073 
	C179.768524,68.580437 178.533997,68.163918 177.162689,67.447189 
	C178.157715,67.252441 179.289520,67.357910 180.714096,67.638367 
z"/>
<path fill="#F1C02F" opacity="1.000000" stroke="none" 
	d="
M295.367462,179.936707 
	C295.421692,179.167267 295.852783,178.421249 296.283844,177.675247 
	C296.806610,178.208374 297.329407,178.741501 297.927551,179.561401 
	C297.250061,179.885498 296.497162,179.922821 295.367462,179.936707 
z"/>
<path fill="#E8B12B" opacity="1.000000" stroke="none" 
	d="
M193.626038,82.849915 
	C193.977753,83.166733 193.988144,83.338867 193.922699,84.094597 
	C193.691574,85.102776 193.536285,85.527359 193.067230,86.075333 
	C191.637192,86.530693 190.090149,86.521072 189.497528,87.268341 
	C188.386963,88.668709 187.261993,90.479515 187.179062,92.170418 
	C187.065201,94.492325 187.567429,98.751221 188.408005,98.905853 
	C194.163330,99.964577 200.076202,100.166740 206.205170,100.402573 
	C206.791901,99.799217 207.111771,99.438202 207.431656,99.077194 
	C210.018356,97.360138 212.755356,95.828888 215.158447,93.884872 
	C219.332367,90.508331 222.972549,91.534988 226.826141,95.164871 
	C227.056488,95.785927 227.015533,95.966667 226.646912,96.199265 
	C225.272202,96.624893 224.225113,96.998650 223.038269,97.038376 
	C220.673508,93.604706 219.089066,95.790604 217.342194,97.324524 
	C211.357224,102.579903 205.336624,107.794701 199.000061,113.067749 
	C198.111084,113.422607 197.551682,113.734695 197.001099,114.018188 
	C197.009949,113.989594 197.058502,114.024597 196.713623,114.085434 
	C190.627838,118.475166 184.792725,122.689812 179.251236,127.260429 
	C178.452209,127.919464 179.065384,130.290649 179.025024,131.869507 
	C178.229752,132.528275 177.434479,133.187042 176.134491,133.601456 
	C173.043533,129.504654 173.446335,126.369141 177.455688,123.592361 
	C178.969681,122.543823 179.850830,120.581490 181.020447,119.035690 
	C182.272705,118.267151 183.709091,117.690994 184.746567,116.698051 
	C190.402664,111.284752 190.189026,108.673500 183.281387,105.415215 
	C178.391006,103.108475 176.180481,99.456772 176.297577,94.402290 
	C176.423950,88.947090 178.066223,83.938683 184.145279,82.588615 
	C187.040344,81.945663 190.229034,82.624908 193.626038,82.849915 
z"/>
<path fill="#E3C28C" opacity="1.000000" stroke="none" 
	d="
M199.329605,113.024971 
	C205.336624,107.794701 211.357224,102.579903 217.342194,97.324524 
	C219.089066,95.790604 220.673508,93.604706 222.986084,97.237206 
	C223.029434,98.050758 223.013031,98.333084 222.853699,98.820160 
	C222.441101,99.268181 222.199249,99.513077 221.641998,99.900146 
	C210.521713,109.021057 199.716827,117.999802 188.848785,127.289307 
	C188.795868,128.019455 188.806122,128.438858 188.795349,128.828751 
	C188.774307,128.799240 188.701981,128.794418 188.701981,128.794418 
	C187.216400,129.575775 185.730835,130.357132 184.060593,131.393951 
	C183.198395,131.681213 182.520889,131.712997 181.441437,131.400711 
	C182.029953,129.505188 182.783752,127.717377 184.054092,126.445511 
	C188.289062,122.205490 192.709274,118.150497 197.058502,114.024597 
	C197.058502,114.024597 197.009949,113.989594 197.331573,114.026566 
	C198.212006,113.717354 198.770813,113.371162 199.329605,113.024971 
z"/>
<path fill="#F1C02F" opacity="1.000000" stroke="none" 
	d="
M180.765839,118.841537 
	C179.850830,120.581490 178.969681,122.543823 177.455688,123.592361 
	C173.446335,126.369141 173.043533,129.504654 175.820129,133.666718 
	C172.142334,135.810654 170.760071,133.303009 170.250000,130.293930 
	C169.683121,126.949883 176.714661,119.254387 180.765839,118.841537 
z"/>
<path fill="#C78629" opacity="1.000000" stroke="none" 
	d="
M196.713623,114.085434 
	C192.709274,118.150497 188.289062,122.205490 184.054092,126.445511 
	C182.783752,127.717377 182.029953,129.505188 181.100647,131.403519 
	C180.687164,131.793732 180.212540,131.837051 179.381485,131.874939 
	C179.065384,130.290649 178.452209,127.919464 179.251236,127.260429 
	C184.792725,122.689812 190.627838,118.475166 196.713623,114.085434 
z"/>
<path fill="#C78629" opacity="1.000000" stroke="none" 
	d="
M223.024475,98.617050 
	C223.013031,98.333084 223.029434,98.050758 223.125854,97.571228 
	C224.225113,96.998650 225.272202,96.624893 226.742859,96.513680 
	C230.816925,99.734406 234.334427,102.879799 238.157562,105.594841 
	C241.559647,108.010902 245.300278,109.950241 248.891510,112.099976 
	C248.891510,112.099968 249.354675,112.181908 249.655029,112.507431 
	C251.272568,114.246979 252.448776,115.833923 253.932648,117.043472 
	C258.925903,121.113632 264.028656,125.049469 269.089508,129.036682 
	C268.912354,129.065338 268.735168,129.093994 267.933289,129.068451 
	C260.859711,124.272026 254.409912,119.531143 247.963425,114.785767 
	C247.208588,114.230103 246.527206,113.550591 245.716843,113.098831 
	C243.029861,111.600929 240.176682,110.368629 237.611969,108.690941 
	C232.668274,105.457085 227.878220,101.988373 223.024475,98.617050 
z"/>
<path fill="#E3C28C" opacity="1.000000" stroke="none" 
	d="
M269.368988,129.109039 
	C264.028656,125.049469 258.925903,121.113632 253.932648,117.043472 
	C252.448776,115.833923 251.272568,114.246979 249.889938,112.496262 
	C252.223587,112.999535 254.958588,113.363083 256.956665,114.771843 
	C262.232483,118.491562 267.188751,122.664536 272.529175,126.849243 
	C271.740234,127.754753 270.694336,128.468079 269.368988,129.109039 
z"/>
<path fill="#E3C28C" opacity="1.000000" stroke="none" 
	d="
M248.873917,111.736115 
	C245.300278,109.950241 241.559647,108.010902 238.157562,105.594841 
	C234.334427,102.879799 230.816925,99.734406 227.070511,96.461807 
	C227.015533,95.966667 227.056488,95.785927 227.135071,95.330139 
	C230.453979,96.767731 233.735291,98.480377 237.578522,100.476662 
	C239.721420,101.878601 241.302353,102.996902 242.883301,104.115204 
	C242.883301,104.115204 242.867462,104.158844 242.864746,104.183853 
	C244.860123,106.596664 246.858215,108.984459 248.873917,111.736115 
z"/>
<path fill="#F3C63D" opacity="1.000000" stroke="none" 
	d="
M188.911942,126.978546 
	C199.716827,117.999802 210.521713,109.021057 221.669067,100.273514 
	C222.025467,100.997726 222.039383,101.490738 221.904175,102.181557 
	C222.182510,102.912262 222.609970,103.445168 223.313538,104.167511 
	C225.396057,105.565125 227.202484,106.773308 229.008926,107.981491 
	C229.472458,113.735611 234.441956,115.254898 238.382111,117.354958 
	C242.025253,119.296722 242.680939,121.159386 241.702408,125.262711 
	C240.136261,131.830124 239.989609,138.723862 238.912399,145.426529 
	C238.520004,147.868042 237.781738,151.259628 236.092178,152.178543 
	C234.661591,152.956619 231.220276,151.306473 229.386642,149.835861 
	C223.973190,145.494080 218.871613,140.756882 213.734940,136.078949 
	C210.479706,133.114441 208.690475,134.398254 207.893936,138.031235 
	C207.404770,140.262314 207.024948,142.662949 207.316162,144.893448 
	C208.380661,153.046997 207.237915,154.680496 198.391449,156.000381 
	C197.230148,156.010086 196.468231,156.007950 195.372971,155.706757 
	C195.072296,155.210648 195.104950,155.013626 195.486206,154.743652 
	C196.816589,153.678146 198.566818,152.749207 198.655106,151.682709 
	C199.217239,144.892822 199.495728,138.074936 199.689316,131.261230 
	C199.768738,128.466171 198.206619,126.948662 194.852356,127.109589 
	C193.296921,127.076157 192.165466,127.060905 190.680740,127.032043 
	C189.855621,127.005127 189.383774,126.991837 188.911942,126.978546 
z"/>
<path fill="#E8B12B" opacity="1.000000" stroke="none" 
	d="
M195.137604,154.816605 
	C195.104950,155.013626 195.072296,155.210648 194.991898,155.703552 
	C188.332291,157.560287 184.632599,155.102463 185.165649,148.422592 
	C185.671600,142.082184 187.468384,135.844772 188.699768,129.178253 
	C188.701981,128.794418 188.774307,128.799240 189.109344,128.788635 
	C189.974258,128.200562 190.504135,127.623116 191.034027,127.045654 
	C192.165466,127.060905 193.296921,127.076157 194.805878,127.413895 
	C195.111267,128.142548 195.039124,128.548706 194.652893,129.142136 
	C193.672852,130.056580 192.493393,130.736801 192.421921,131.518311 
	C191.835388,137.932755 191.322617,144.363220 191.186478,150.797287 
	C191.170212,151.565506 193.545258,152.384338 194.885254,153.449249 
	C195.018265,154.084717 195.077942,154.450668 195.137604,154.816605 
z"/>
<path fill="#F2C335" opacity="1.000000" stroke="none" 
	d="
M241.274399,176.786957 
	C241.171494,177.009567 240.973770,177.128952 240.776062,177.248337 
	C240.910568,177.060135 241.045090,176.871933 241.274399,176.786957 
z"/>
<path fill="#E3C28C" opacity="1.000000" stroke="none" 
	d="
M207.380402,98.716843 
	C207.111771,99.438202 206.791901,99.799217 205.757294,100.299316 
	C202.420792,100.347969 199.693283,100.658417 197.219727,100.006073 
	C195.887589,99.654747 194.286179,97.778343 194.037216,96.372101 
	C193.434280,92.966736 193.553070,89.433586 193.380981,85.951942 
	C193.536285,85.527359 193.691574,85.102776 193.941467,84.352585 
	C197.334625,84.058846 200.633163,84.094604 203.931778,84.121422 
	C206.906769,84.145607 208.019409,85.791115 207.859711,88.580994 
	C207.673233,91.838943 207.505188,95.097946 207.380402,98.716843 
z"/>
<path fill="#F4CA46" opacity="1.000000" stroke="none" 
	d="
M242.912399,103.710693 
	C241.302353,102.996902 239.721420,101.878601 237.930634,100.507683 
	C238.947098,99.689278 240.173416,99.123482 241.399750,98.557693 
	C241.913666,100.140518 242.427582,101.723351 242.912399,103.710693 
z"/>
<path fill="#F4CA46" opacity="1.000000" stroke="none" 
	d="
M250.372986,99.963226 
	C250.361542,100.468185 250.196976,100.828094 250.032410,101.188011 
	C249.823425,101.004044 249.614456,100.820076 249.405472,100.636108 
	C249.676941,100.363472 249.948395,100.090828 250.372986,99.963226 
z"/>
<path fill="#E8B12B" opacity="1.000000" stroke="none" 
	d="
M222.053284,101.983749 
	C222.039383,101.490738 222.025467,100.997726 221.984497,100.131348 
	C222.199249,99.513077 222.441101,99.268181 222.853699,98.820168 
	C227.878220,101.988373 232.668274,105.457085 237.611969,108.690941 
	C240.176682,110.368629 243.029861,111.600929 245.716843,113.098831 
	C246.527206,113.550591 247.208588,114.230103 247.963425,114.785767 
	C254.409912,119.531143 260.859711,124.272026 267.667297,129.110062 
	C268.077179,132.617706 266.247162,133.456589 263.313293,132.515579 
	C261.028564,131.782791 258.803009,130.865448 256.001068,129.756317 
	C254.211548,129.275177 252.972153,129.067810 251.362183,128.908340 
	C249.983459,130.485062 248.215866,131.961502 248.106125,133.552307 
	C247.741669,138.834732 247.685059,144.183777 248.149796,149.450836 
	C248.292252,151.065353 250.490372,152.498489 251.826874,154.260559 
	C251.945923,154.674179 251.985229,154.841965 252.024551,155.009735 
	C251.240829,156.199646 250.457108,157.389557 249.673401,158.579468 
	C247.158005,156.692734 243.974045,155.242676 242.358063,152.768494 
	C241.247513,151.068130 242.286331,147.944794 242.413193,145.459976 
	C242.590866,141.980194 242.701950,138.490997 243.064636,135.029205 
	C243.246796,133.290680 243.506470,131.320450 244.446060,129.942520 
	C248.549103,123.925438 247.189026,118.401749 240.659882,114.895782 
	C236.886688,112.869682 233.276993,110.539070 229.301331,108.163498 
	C227.202484,106.773308 225.396057,105.565125 223.250565,103.891434 
	C222.625427,102.945206 222.339355,102.464485 222.053284,101.983749 
z"/>
<path fill="#E3C28C" opacity="1.000000" stroke="none" 
	d="
M252.375793,154.982910 
	C251.985229,154.841965 251.945923,154.674179 251.904022,153.793121 
	C251.845215,145.006714 251.788986,136.933594 251.732758,128.860458 
	C252.972153,129.067810 254.211548,129.275177 255.609100,129.742065 
	C255.709488,137.968826 255.651718,145.936050 255.525681,154.266449 
	C254.547287,154.738449 253.637146,154.847275 252.375793,154.982910 
z"/>
<path fill="#FEA500" opacity="1.000000" stroke="none" 
	d="
M143.609344,202.861755 
	C143.712296,203.145828 143.402771,203.720734 142.816528,204.107254 
	C142.758835,203.663437 142.977844,203.408020 143.609344,202.861755 
z"/>
<path fill="#E8B12B" opacity="1.000000" stroke="none" 
	d="
M285.318695,193.596558 
	C286.850861,192.927963 288.321350,192.481705 289.794006,192.474350 
	C290.032867,192.473175 290.825226,194.934448 290.418762,195.362946 
	C289.394775,196.442307 287.832245,197.010803 286.485626,197.784088 
	C286.076324,196.511017 285.667023,195.237915 285.318695,193.596558 
z"/>
<path fill="#FEA500" opacity="1.000000" stroke="none" 
	d="
M335.064758,199.602921 
	C333.999237,201.452393 333.282928,203.330276 331.922485,204.196640 
	C330.727783,204.957458 328.634827,205.042679 327.286499,204.523239 
	C326.592926,204.256042 326.475525,202.024811 326.433075,200.670578 
	C326.392456,199.376068 326.789520,198.068359 326.988831,196.765640 
	C327.317993,194.614105 326.637482,191.746826 330.237793,191.808197 
	C333.723541,191.867630 335.205444,193.933563 335.276733,197.223160 
	C335.290894,197.877991 335.184692,198.535446 335.064758,199.602921 
z"/>
<path fill="#FEA500" opacity="1.000000" stroke="none" 
	d="
M323.066864,198.780212 
	C322.091736,201.009811 321.172974,203.059723 319.893555,205.303558 
	C317.277496,205.185608 315.022156,204.873718 312.761108,204.561035 
	C311.964325,201.451065 312.940369,200.034470 315.985992,199.662216 
	C316.902130,199.550247 317.664642,198.181381 317.969177,196.946548 
	C316.076202,196.279556 314.711578,196.054321 313.346924,195.829071 
	C313.333618,195.446625 313.320312,195.064194 313.611694,194.264130 
	C314.266998,193.204956 314.617584,192.563416 314.968140,191.921860 
	C315.411896,191.885803 315.855652,191.849747 316.632416,191.847900 
	C318.640503,192.254089 320.315521,192.626083 322.616486,193.137085 
	C322.715607,194.310669 322.846222,195.857422 323.052521,197.814056 
	C323.128174,198.223938 323.123230,198.600540 323.066864,198.780212 
z"/>
<path fill="#FEE6A7" opacity="1.000000" stroke="none" 
	d="
M308.056519,188.983871 
	C308.075714,189.286301 308.163666,189.870911 308.061554,189.906265 
	C301.447510,192.195450 302.830231,198.230026 301.794769,203.142929 
	C301.523621,204.429535 301.001770,205.663300 300.595032,206.921341 
	C300.017761,206.831238 299.440521,206.741150 298.863251,206.651062 
	C299.130493,203.718750 299.303101,200.773880 299.690369,197.857498 
	C300.118561,194.633011 300.740753,191.435776 295.700165,190.675751 
	C295.906403,190.136093 296.112610,189.596436 296.318817,189.056778 
	C299.917358,189.056778 303.515900,189.056778 307.571777,189.001434 
	C308.029144,188.946075 308.036621,189.009705 308.056519,188.983871 
z"/>
<path fill="#E8B12B" opacity="1.000000" stroke="none" 
	d="
M313.501465,196.160370 
	C314.711578,196.054321 316.076202,196.279556 317.724182,196.700104 
	C316.557007,196.760818 315.106537,196.626236 313.501465,196.160370 
z"/>
<path fill="#E8B12B" opacity="1.000000" stroke="none" 
	d="
M314.653198,191.953186 
	C314.617584,192.563416 314.266998,193.204956 313.667847,193.981476 
	C313.725586,193.405807 314.031921,192.695160 314.653198,191.953186 
z"/>
<path fill="#C78629" opacity="1.000000" stroke="none" 
	d="
M193.067230,86.075333 
	C193.553070,89.433586 193.434280,92.966736 194.037216,96.372101 
	C194.286179,97.778343 195.887589,99.654747 197.219727,100.006073 
	C199.693283,100.658417 202.420792,100.347969 205.490448,100.541656 
	C200.076202,100.166740 194.163330,99.964577 188.408005,98.905853 
	C187.567429,98.751221 187.065201,94.492325 187.179062,92.170418 
	C187.261993,90.479515 188.386963,88.668709 189.497528,87.268341 
	C190.090149,86.521072 191.637192,86.530693 193.067230,86.075333 
z"/>
<path fill="#C78629" opacity="1.000000" stroke="none" 
	d="
M199.000061,113.067749 
	C198.770813,113.371162 198.212006,113.717354 197.322739,114.055161 
	C197.551682,113.734695 198.111084,113.422607 199.000061,113.067749 
z"/>
<path fill="#F1C02F" opacity="1.000000" stroke="none" 
	d="
M190.680740,127.032036 
	C190.504135,127.623116 189.974258,128.200562 189.130386,128.818146 
	C188.806122,128.438858 188.795868,128.019455 188.848785,127.289299 
	C189.383774,126.991837 189.855621,127.005127 190.680740,127.032036 
z"/>
<path fill="#E3C28C" opacity="1.000000" stroke="none" 
	d="
M194.966980,128.954865 
	C195.039124,128.548706 195.111267,128.142548 195.229874,127.432083 
	C198.206619,126.948662 199.768738,128.466171 199.689316,131.261230 
	C199.495728,138.074936 199.217239,144.892822 198.655106,151.682709 
	C198.566818,152.749207 196.816589,153.678146 195.486221,154.743652 
	C195.077942,154.450668 195.018265,154.084717 194.928040,152.960983 
	C194.920639,144.453751 194.943802,136.704300 194.966980,128.954865 
z"/>
<path fill="#F2C335" opacity="1.000000" stroke="none" 
	d="
M221.904160,102.181564 
	C222.339355,102.464485 222.625427,102.945206 222.974472,103.702003 
	C222.609970,103.445168 222.182510,102.912262 221.904160,102.181564 
z"/>
<path fill="#C78629" opacity="1.000000" stroke="none" 
	d="
M194.652893,129.142136 
	C194.943802,136.704300 194.920639,144.453751 194.854675,152.691437 
	C193.545258,152.384338 191.170212,151.565506 191.186478,150.797287 
	C191.322617,144.363220 191.835388,137.932755 192.421921,131.518311 
	C192.493393,130.736801 193.672852,130.056580 194.652893,129.142136 
z"/>
<path fill="#C78629" opacity="1.000000" stroke="none" 
	d="
M251.362183,128.908340 
	C251.788986,136.933594 251.845215,145.006714 251.824280,153.547272 
	C250.490372,152.498489 248.292252,151.065353 248.149796,149.450836 
	C247.685059,144.183777 247.741669,138.834732 248.106125,133.552307 
	C248.215866,131.961502 249.983459,130.485062 251.362183,128.908340 
z"/>
</svg>