<svg width="16" height="16" viewBox="0 0 16 16" fill="none" xmlns="http://www.w3.org/2000/svg">
<g clip-path="url(#clip0_167_2368)">
<path d="M12.0206 11.0782L14.8759 13.9328L13.9326 14.8762L11.0779 12.0208C10.0157 12.8723 8.69459 13.3354 7.33325 13.3335C4.02125 13.3335 1.33325 10.6455 1.33325 7.3335C1.33325 4.0215 4.02125 1.3335 7.33325 1.3335C10.6453 1.3335 13.3333 4.0215 13.3333 7.3335C13.3352 8.69483 12.8721 10.016 12.0206 11.0782ZM10.6833 10.5835C11.5293 9.71342 12.0018 8.54712 11.9999 7.3335C11.9999 4.75483 9.91125 2.66683 7.33325 2.66683C4.75459 2.66683 2.66659 4.75483 2.66659 7.3335C2.66659 9.9115 4.75459 12.0002 7.33325 12.0002C8.54687 12.0021 9.71318 11.5296 10.5833 10.6835L10.6833 10.5835V10.5835Z" fill="#4C5664"/>
</g>
<defs>
<clipPath id="clip0_167_2368">
<rect width="16" height="16" fill="white"/>
</clipPath>
</defs>
</svg>
