<?xml version="1.0" encoding="UTF-8" standalone="no"?>
<!DOCTYPE svg PUBLIC "-//W3C//DTD SVG 1.1//EN" "http://www.w3.org/Graphics/SVG/1.1/DTD/svg11.dtd">
<!-- Created with Vectornator (http://vectornator.io/) -->
<svg height="100%" stroke-miterlimit="10" style="fill-rule:nonzero;clip-rule:evenodd;stroke-linecap:round;stroke-linejoin:round;" version="1.1" viewBox="0 0 122.8 122.8" width="100%" xml:space="preserve" xmlns="http://www.w3.org/2000/svg" xmlns:vectornator="http://vectornator.io" xmlns:xlink="http://www.w3.org/1999/xlink">
<defs/>
<clipPath id="ArtboardFrame">
<rect height="122.8" width="122.8" x="0" y="0"/>
</clipPath>
<g clip-path="url(#ArtboardFrame)" id="Untitled" vectornator:layerName="Untitled">
<g opacity="1">
<g opacity="1">
<path d="M25.8 77.6C25.8 84.7 20 90.5 12.9 90.5C5.8 90.5 1.42109e-14 84.7 0 77.6C0 70.5 5.8 64.7 12.9 64.7L25.8 64.7L25.8 77.6Z" fill="#e01e5a" fill-rule="nonzero" opacity="1" stroke="none"/>
<path d="M32.3 77.6C32.3 70.5 38.1 64.7 45.2 64.7C52.3 64.7 58.1 70.5 58.1 77.6L58.1 109.9C58.1 117 52.3 122.8 45.2 122.8C38.1 122.8 32.3 117 32.3 109.9L32.3 77.6Z" fill="#e01e5a" fill-rule="nonzero" opacity="1" stroke="none"/>
</g>
<g opacity="1">
<path d="M45.2 25.8C38.1 25.8 32.3 20 32.3 12.9C32.3 5.8 38.1 2.84217e-14 45.2 1.42109e-14C52.3 1.42109e-14 58.1 5.8 58.1 12.9L58.1 25.8L45.2 25.8Z" fill="#36c5f0" fill-rule="nonzero" opacity="1" stroke="none"/>
<path d="M45.2 32.3C52.3 32.3 58.1 38.1 58.1 45.2C58.1 52.3 52.3 58.1 45.2 58.1L12.9 58.1C5.8 58.1 0 52.3 1.42109e-14 45.2C0 38.1 5.8 32.3 12.9 32.3L45.2 32.3Z" fill="#36c5f0" fill-rule="nonzero" opacity="1" stroke="none"/>
</g>
<g opacity="1">
<path d="M97 45.2C97 38.1 102.8 32.3 109.9 32.3C117 32.3 122.8 38.1 122.8 45.2C122.8 52.3 117 58.1 109.9 58.1L97 58.1L97 45.2Z" fill="#2eb67d" fill-rule="nonzero" opacity="1" stroke="none"/>
<path d="M90.5 45.2C90.5 52.3 84.7 58.1 77.6 58.1C70.5 58.1 64.7 52.3 64.7 45.2L64.7 12.9C64.7 5.8 70.5 1.42109e-14 77.6 0C84.7 2.84217e-14 90.5 5.8 90.5 12.9L90.5 45.2Z" fill="#2eb67d" fill-rule="nonzero" opacity="1" stroke="none"/>
</g>
<g opacity="1">
<path d="M77.6 97C84.7 97 90.5 102.8 90.5 109.9C90.5 117 84.7 122.8 77.6 122.8C70.5 122.8 64.7 117 64.7 109.9L64.7 97L77.6 97Z" fill="#ecb22e" fill-rule="nonzero" opacity="1" stroke="none"/>
<path d="M77.6 90.5C70.5 90.5 64.7 84.7 64.7 77.6C64.7 70.5 70.5 64.7 77.6 64.7L109.9 64.7C117 64.7 122.8 70.5 122.8 77.6C122.8 84.7 117 90.5 109.9 90.5L77.6 90.5Z" fill="#ecb22e" fill-rule="nonzero" opacity="1" stroke="none"/>
</g>
</g>
</g>
</svg>
